<?xml version="1.0" encoding="UTF-8"?>
<svg id="Layer_1" xmlns="http://www.w3.org/2000/svg" xmlns:x="http://ns.adobe.com/Extensibility/1.0/" version="1.1" viewBox="0 0 100 88.5">
  <!-- Generator: Adobe Illustrator 30.0.0, SVG Export Plug-In . SVG Version: 2.1.1 Build 123)  -->
  <defs>
    <style>
      .st0 {
        fill: #d6d3d1;
      }
    </style>
  </defs>
  <path class="st0" d="M22.5,63c-7.4,0-13.4-6-13.4-13.4s6-13.4,13.4-13.4,1.6,0,2.4.2c.9.2,1.9,0,2.6-.6.7-.6,1.2-1.5,1.3-2.4.7-11.1,10-19.8,21.2-19.8s12.6,3,16.5,7.9l4.7-4.7c-5.1-6.1-12.8-9.9-21.3-9.9-13.5,0-24.9,9.7-27.4,22.7h-.1c-11,0-20,9-20,20s7,17.9,16.3,19.6l6.3-6.3h-2.5Z"/>
  <path class="st0" d="M80.3,26.3l7.3-7.3c1.3-1.3,1.3-3.4,0-4.7-1.3-1.3-3.4-1.3-4.7,0l-62.3,62.3c-1.3,1.3-1.3,3.4,0,4.7.6.6,1.5,1,2.3,1s1.7-.3,2.3-1l11.6-11.6h38.6c12.1,0,22-9.9,22-22,.1-10.5-7.3-19.2-17.1-21.4ZM75.5,63h-32l30.6-30.6h0c.5,0,.9,0,1.4,0,8.5,0,15.3,6.9,15.3,15.3s-6.8,15.4-15.3,15.4Z"/>
</svg>